<?xml version="1.0" encoding="utf-8"?>
<!-- Generator: Adobe Illustrator 26.0.2, SVG Export Plug-In . SVG Version: 6.00 Build 0)  -->
<svg version="1.1" id="Layer_1" xmlns="http://www.w3.org/2000/svg" xmlns:xlink="http://www.w3.org/1999/xlink" x="0px" y="0px"
	 viewBox="0 0 700 700" style="enable-background:new 0 0 700 700;" xml:space="preserve">
<style type="text/css">
	.st0{fill:url(#SVGID_1_);}
	.st1{fill:url(#SVGID_00000116223800445604184880000008954301146996996751_);}
	.st2{fill:url(#SVGID_00000080914090526964969160000008938861429411341446_);}
	.st3{fill:url(#SVGID_00000047749982973141087290000017975339660821076868_);}
	.st4{fill:url(#SVGID_00000171689368747336628430000015342736112598822326_);}
	.st5{fill:url(#SVGID_00000089539021070785298570000003416022893037712517_);}
	.st6{fill:url(#SVGID_00000022551672671954519830000006267124502159098045_);}
</style>
<linearGradient id="SVGID_1_" gradientUnits="userSpaceOnUse" x1="917.0662" y1="681.1903" x2="293.0818" y2="1471.0808" gradientTransform="matrix(1 0 0 1 0 -798)">
	<stop  offset="0" style="stop-color:#FFFFFF"/>
	<stop  offset="0.99" style="stop-color:#25292B"/>
</linearGradient>
<polygon class="st0" points="287.6,438.2 294.8,438.2 688.5,438.2 695.6,438.2 695.6,405.4 287.6,405.4 "/>
<linearGradient id="SVGID_00000170976539055545169000000017771640453454736544_" gradientUnits="userSpaceOnUse" x1="942.8783" y1="701.5944" x2="318.894" y2="1491.4849" gradientTransform="matrix(1 0 0 1 0 -798)">
	<stop  offset="0" style="stop-color:#FFFFFF"/>
	<stop  offset="0.99" style="stop-color:#25292B"/>
</linearGradient>
<polygon style="fill:url(#SVGID_00000170976539055545169000000017771640453454736544_);" points="287.6,502.2 301.9,502.2 
	664.1,502.2 678.4,502.2 678.4,469.3 287.6,469.3 "/>
<linearGradient id="SVGID_00000010270610413517903330000009523821036844950668_" gradientUnits="userSpaceOnUse" x1="964.0937" y1="718.351" x2="340.1241" y2="1508.2415" gradientTransform="matrix(1 0 0 1 0 -798)">
	<stop  offset="0" style="stop-color:#FFFFFF"/>
	<stop  offset="0.99" style="stop-color:#25292B"/>
</linearGradient>
<polygon style="fill:url(#SVGID_00000010270610413517903330000009523821036844950668_);" points="287.6,566.1 311.2,566.1 
	622.6,566.1 646.4,566.1 646.4,533.2 287.6,533.2 "/>
<linearGradient id="SVGID_00000040543398718052091980000001456845821324391064_" gradientUnits="userSpaceOnUse" x1="890.3549" y1="660.0964" x2="266.3855" y2="1449.9865" gradientTransform="matrix(1 0 0 1 0 -798)">
	<stop  offset="0" style="stop-color:#FFFFFF"/>
	<stop  offset="0.99" style="stop-color:#25292B"/>
</linearGradient>
<polygon style="fill:url(#SVGID_00000040543398718052091980000001456845821324391064_);" points="-0.5,630 39.2,630 554.1,630 
	593.9,630 593.9,597.2 -0.5,597.2 "/>
<linearGradient id="SVGID_00000046322081324018048360000012813709239573105342_" gradientUnits="userSpaceOnUse" x1="892.7531" y1="661.9879" x2="268.7688" y2="1451.8784" gradientTransform="matrix(1 0 0 1 0 -798)">
	<stop  offset="0" style="stop-color:#FFFFFF"/>
	<stop  offset="0.99" style="stop-color:#25292B"/>
</linearGradient>
<polygon style="fill:url(#SVGID_00000046322081324018048360000012813709239573105342_);" points="-0.5,693.7 146.3,693.7 
	353.9,693.7 500.8,693.7 500.8,661.1 -0.5,661.1 "/>
<linearGradient id="SVGID_00000173865783925266907850000015154369060323921583_" gradientUnits="userSpaceOnUse" x1="715.5734" y1="522.0282" x2="91.6042" y2="1311.9186" gradientTransform="matrix(1 0 0 1 0 -798)">
	<stop  offset="0" style="stop-color:#FFFFFF"/>
	<stop  offset="0.99" style="stop-color:#25292B"/>
</linearGradient>
<path style="fill:url(#SVGID_00000173865783925266907850000015154369060323921583_);" d="M371.1,0.8H-0.6v207.4h288.2v166.1h412
	c0.7-9,1.2-18.1,1.2-27.2C700.7,161.3,554.7,9.7,371.1,0.8z"/>
<linearGradient id="SVGID_00000121982296684266844200000004607793487673523867_" gradientUnits="userSpaceOnUse" x1="667.3021" y1="483.9052" x2="43.3328" y2="1273.7957" gradientTransform="matrix(1 0 0 1 0 -798)">
	<stop  offset="0" style="stop-color:#FFFFFF"/>
	<stop  offset="0.99" style="stop-color:#25292B"/>
</linearGradient>
<rect x="0.4" y="310.2" style="fill:url(#SVGID_00000121982296684266844200000004607793487673523867_);" width="192.6" height="196"/>
</svg>
