<svg width="28" height="27" viewBox="0 0 28 27" fill="none" xmlns="http://www.w3.org/2000/svg">
<path d="M11.226 17.0433H11.5068H26.8436H27.1244V15.7642H11.226V17.0433Z" fill="white"/>
<path d="M11.226 19.5342H11.7865H25.8912H26.4523V18.2551H11.226V19.5342Z" fill="white"/>
<path d="M11.226 22.0252H12.1481H24.28H25.2027V20.746H11.226V22.0252Z" fill="white"/>
<path d="M0.000610352 24.5161H1.54784H21.6112H23.159V23.2375H0.000610352V24.5161Z" fill="white"/>
<path d="M0.000610352 27H5.7232H13.8105H19.5331V25.7283H0.000610352V27Z" fill="white"/>
<path d="M14.478 0H0V8.08209H11.226V14.5524H27.2739C27.3012 14.2035 27.3192 13.8489 27.3192 13.4913C27.3186 6.25461 21.6286 0.347704 14.478 0Z" fill="white"/>
<path d="M7.54485 12.054H0.0395508V19.6936H7.54485V12.054Z" fill="white"/>
</svg>
