<svg width="222" height="278" viewBox="0 0 222 278" fill="none" xmlns="http://www.w3.org/2000/svg">
<g filter="url(#filter0_d_173_6)">
<path d="M158.143 168C163.144 168 167.94 169.981 171.477 173.506C175.013 177.032 177 181.814 177 186.8V243.2C177 248.186 175.013 252.968 171.477 256.494C167.94 260.019 163.144 262 158.143 262H63.8571C58.8559 262 54.0595 260.019 50.5231 256.494C46.9867 252.968 45 248.186 45 243.2V186.8C45 181.814 46.9867 177.032 50.5231 173.506C54.0595 169.981 58.8559 168 63.8571 168V121C63.8571 108.535 68.824 96.5802 77.665 87.766C86.506 78.9518 98.4969 74 111 74C123.503 74 135.494 78.9518 144.335 87.766C153.176 96.5802 158.143 108.535 158.143 121V168ZM111 233.8C116.001 233.8 120.798 231.819 124.334 228.294C127.87 224.768 129.857 219.986 129.857 215C129.857 210.014 127.87 205.232 124.334 201.706C120.798 198.181 116.001 196.2 111 196.2C105.999 196.2 101.202 198.181 97.666 201.706C94.1296 205.232 92.1429 210.014 92.1429 215C92.1429 219.986 94.1296 224.768 97.666 228.294C101.202 231.819 105.999 233.8 111 233.8ZM139.286 168V121C139.286 117.297 138.554 113.63 137.133 110.208C135.711 106.787 133.628 103.678 131.001 101.06C128.374 98.441 125.256 96.3638 121.824 94.9466C118.393 93.5294 114.715 92.8 111 92.8C107.285 92.8 103.607 93.5294 100.176 94.9466C96.7437 96.3638 93.6256 98.441 90.999 101.06C88.3724 103.678 86.2889 106.787 84.8674 110.208C83.4459 113.63 82.7143 117.297 82.7143 121V168H139.286Z" fill="url(#paint0_linear_173_6)"/>
</g>
<defs>
<filter id="filter0_d_173_6" x="0" y="0" width="222" height="278" filterUnits="userSpaceOnUse" color-interpolation-filters="sRGB">
<feFlood flood-opacity="0" result="BackgroundImageFix"/>
<feColorMatrix in="SourceAlpha" type="matrix" values="0 0 0 0 0 0 0 0 0 0 0 0 0 0 0 0 0 0 127 0" result="hardAlpha"/>
<feOffset dy="-29"/>
<feGaussianBlur stdDeviation="22.5"/>
<feComposite in2="hardAlpha" operator="out"/>
<feColorMatrix type="matrix" values="0 0 0 0 1 0 0 0 0 1 0 0 0 0 1 0 0 0 0.12 0"/>
<feBlend mode="normal" in2="BackgroundImageFix" result="effect1_dropShadow_173_6"/>
<feBlend mode="normal" in="SourceGraphic" in2="effect1_dropShadow_173_6" result="shape"/>
</filter>
<linearGradient id="paint0_linear_173_6" x1="113.424" y1="74.0342" x2="110.924" y2="267.932" gradientUnits="userSpaceOnUse">
<stop stop-color="white"/>
<stop offset="0.784859"/>
</linearGradient>
</defs>
</svg>
