            <svg class="drumlatch" width="305" height="51" viewBox="0 0 305 51"
                fill="none" xmlns="http://www.w3.org/2000/svg">
                <path
                    d="M68.4277 45.4296V9.34277H78.9276C83.8604 9.34277 87.5849 10.8615 90.1009 13.899C92.617 16.9365 93.872 21.4328 93.8657 27.3877C93.8657 33.3427 92.6108 37.839 90.1009 40.8765C87.5911 43.914 83.8666 45.4317 78.9276 45.4296H68.4277ZM74.3248 39.9267H78.9276C81.9672 39.9267 84.2308 38.8922 85.7185 36.823C87.2062 34.7539 87.9501 31.6109 87.9501 27.394C87.9501 23.1543 87.2062 20.004 85.7185 17.9432C84.2308 15.8823 81.9672 14.8477 78.9276 14.8394H74.3372L74.3248 39.9267Z"
                    fill="white" />
                <path
                    d="M96.8018 18.1381H107.764V20.3107H109.207C109.73 19.3962 110.506 18.6525 111.442 18.1691C112.454 17.6573 113.576 17.4015 114.71 17.4242C116.908 17.4242 118.607 18.2064 119.81 19.7706C121.012 21.3349 121.613 23.5303 121.613 26.3567V30.4164H115.793V27.1606C115.793 24.2638 114.655 22.8206 112.379 22.8309C111.711 22.8069 111.05 22.9774 110.477 23.3218C109.904 23.6661 109.444 24.1695 109.151 24.7707C108.448 26.066 108.095 28.0058 108.093 30.5902V40.2117H116.302V45.429H97.5249V40.1993H102.441V23.371H96.8018V18.1381Z"
                    fill="white" />
                <path
                    d="M148.735 18.1387V45.4296H143.053V43.2198H141.622C140.944 44.1692 140.035 44.9298 138.98 45.4296C137.843 45.9562 136.602 46.2183 135.349 46.1962C133.65 46.2413 131.974 45.7951 130.523 44.9113C129.144 44.0244 128.042 42.767 127.345 41.2831C126.541 39.5457 126.149 37.647 126.196 35.7336V18.1387H131.879V34.2562C131.879 36.4226 132.353 38.0624 133.301 39.1756C134.248 40.2888 135.624 40.8444 137.429 40.8423C139.264 40.8423 140.663 40.2868 141.625 39.1756C142.587 38.0645 143.063 36.4247 143.053 34.2562V18.1387H148.735Z"
                    fill="white" />
                <path
                    d="M154.004 18.1386H159.591V20.5316H163.29L160.584 22.2914C160.673 20.754 161.101 19.558 161.869 18.7035C162.259 18.2739 162.74 17.936 163.277 17.7138C163.813 17.4917 164.392 17.3909 164.972 17.4185C165.546 17.4028 166.116 17.5208 166.636 17.7632C167.157 18.0056 167.613 18.3658 167.971 18.8152C168.738 19.7484 169.197 21.0571 169.346 22.7414L166.639 20.7116H172.595L169.979 22.3814C170.037 20.8171 170.488 19.5984 171.332 18.7252C171.767 18.2864 172.288 17.9435 172.863 17.7185C173.439 17.4934 174.054 17.3913 174.672 17.4185C175.394 17.4035 176.109 17.5739 176.748 17.9135C177.386 18.2531 177.927 18.7505 178.318 19.3584C179.223 20.6516 179.674 22.4259 179.672 24.6812V45.4295H174.439V26.8476C174.439 25.7344 174.232 24.8923 173.818 24.3212C173.598 24.0329 173.31 23.8036 172.979 23.6536C172.649 23.5036 172.287 23.4376 171.925 23.4615C171.57 23.4375 171.215 23.5042 170.893 23.6551C170.571 23.806 170.293 24.0363 170.084 24.3243C169.67 24.8954 169.463 25.7375 169.463 26.8507V45.4295H164.243V26.8476C164.243 25.7344 164.036 24.8923 163.622 24.3212C163.416 24.0399 163.142 23.8141 162.827 23.6641C162.512 23.5141 162.165 23.4445 161.816 23.4615C161.454 23.4376 161.092 23.5036 160.761 23.6536C160.431 23.8036 160.143 24.0329 159.923 24.3212C159.509 24.8923 159.302 25.7344 159.302 26.8476V45.4295H154.026L154.004 18.1386Z"
                    fill="white" />
                <path
                    d="M185.385 45.4296V9.34277H188.588V42.4997H205.1V45.4296H185.385Z"
                    fill="white" />
                <path
                    d="M225.733 29.3271V32.1204L216.801 33.5637C215.145 33.8347 213.882 34.3986 213.011 35.2552C212.573 35.6951 212.231 36.2208 212.006 36.7992C211.781 37.3777 211.679 37.9964 211.704 38.6165C211.676 39.2503 211.796 39.8821 212.054 40.4617C212.312 41.0414 212.701 41.553 213.191 41.9561C214.184 42.7672 215.507 43.1728 217.161 43.1728C218.616 43.1994 220.054 42.8498 221.335 42.1578C222.54 41.4932 223.539 40.5096 224.222 39.3148C224.943 38.0447 225.31 36.6039 225.283 35.1434V27.5673C225.283 25.463 224.689 23.8242 223.502 22.651C222.314 21.4778 220.621 20.8912 218.424 20.8912C217.043 20.8656 215.673 21.1432 214.411 21.7044C213.274 22.2136 212.299 23.0239 211.59 24.0477C210.858 25.1414 210.403 26.3958 210.261 27.7039H207.328C207.424 25.8763 208.008 24.108 209.02 22.5827C209.997 21.1542 211.336 20.0105 212.899 19.268C214.647 18.4544 216.558 18.053 218.486 18.0948C221.59 18.0948 223.995 18.8914 225.702 20.4846C227.409 22.0779 228.267 24.3487 228.275 27.2973V45.4291H225.299V42.5861H224.215C223.451 43.7052 222.384 44.5836 221.14 45.1188C219.704 45.7442 218.149 46.0523 216.583 46.022C215.111 46.0621 213.651 45.7525 212.322 45.1188C211.17 44.5493 210.201 43.666 209.529 42.5706C208.834 41.4058 208.482 40.0686 208.514 38.7127C208.514 36.6084 209.175 34.8714 210.497 33.5016C211.819 32.1318 213.699 31.2524 216.136 30.8634L225.733 29.3271Z"
                    fill="white" />
                <path
                    d="M240.678 12.1387V18.6813H253.31V21.4746H240.678V37.0832C240.678 39.0654 241.099 40.5842 241.941 41.6395C242.783 42.6947 244.016 43.2213 245.641 43.2192C247.354 43.2192 248.677 42.6554 249.61 41.5277C250.543 40.4 251.13 38.723 251.37 36.4966H254.163C253.983 39.6251 253.164 42.0047 251.705 43.6351C250.247 45.2656 248.195 46.0705 245.551 46.0498C242.966 46.0498 241.001 45.2832 239.654 43.75C238.307 42.2167 237.63 40.0214 237.624 37.1639V21.4777H231.115V18.6844H237.611V12.1387H240.678Z"
                    fill="white" />
                <path
                    d="M269.185 46.0509C266.809 46.0509 264.779 45.5098 263.095 44.4276C261.35 43.271 259.997 41.6119 259.216 39.6696C258.315 37.5777 257.864 35.0741 257.862 32.1587C257.862 29.1791 258.322 26.6372 259.24 24.5329C260.047 22.5599 261.44 20.8826 263.232 19.7283C264.976 18.6317 267.096 18.0833 269.591 18.0833C271.474 18.0377 273.336 18.4724 275.004 19.3465C276.549 20.1974 277.817 21.4725 278.66 23.0213C279.612 24.8121 280.151 26.7931 280.237 28.8191H277.351C277.017 26.2658 276.175 24.3001 274.824 22.922C273.473 21.544 271.697 20.8674 269.495 20.8922C266.729 20.8922 264.609 21.8699 263.136 23.8252C261.662 25.7805 260.926 28.5625 260.926 32.1711C260.926 35.6886 261.64 38.4095 263.067 40.3338C264.495 42.2581 266.532 43.2213 269.178 43.2234C271.248 43.2234 272.947 42.6027 274.278 41.3612C275.608 40.1197 276.45 38.3609 276.804 36.0849H279.691C279.547 37.9808 278.968 39.8181 277.999 41.4543C277.117 42.8977 275.863 44.077 274.368 44.8684C272.764 45.6838 270.983 46.09 269.185 46.0509Z"
                    fill="white" />
                <path
                    d="M284.831 45.43V7.17676H287.901V21.0286H288.984C289.734 20.0693 290.72 19.3207 291.845 18.856C293.256 18.2821 294.775 18.0249 296.295 18.1026C297.815 18.1804 299.3 18.5912 300.644 19.3061C302.045 20.123 303.169 21.3415 303.869 22.8039C304.659 24.5042 305.045 26.3643 304.996 28.2385V45.43H301.929V28.9803C301.929 26.4229 301.328 24.4572 300.126 23.0833C298.924 21.7094 297.197 21.0245 294.946 21.0286C292.72 21.0286 290.991 21.7125 289.76 23.0802C288.529 24.4479 287.908 26.4136 287.898 28.9772V45.43H284.831Z"
                    fill="white" />
                <path
                    d="M21.0428 31.95H21.5705H50.3171H50.8447V29.5508H21.0428V31.95Z"
                    fill="white" />
                <path
                    d="M21.0428 36.618H22.095H48.5324H49.5846V34.2219H21.0428V36.618Z"
                    fill="white" />
                <path
                    d="M21.0428 41.2857H22.7716H45.5125H47.2413V38.8896H21.0428V41.2857Z"
                    fill="white" />
                <path d="M0 45.9569H2.90197H40.5096H43.4116V43.5608H0V45.9569Z"
                    fill="white" />
                <path d="M0 50.6122H10.7295H25.8881H36.6145V48.2285H0V50.6122Z"
                    fill="white" />
                <path
                    d="M27.1389 0H0V15.1461H21.0432V27.2785H51.1243C51.174 26.6205 51.2081 25.9594 51.2081 25.289C51.2081 18.7903 48.7093 12.5404 44.2289 7.83294C39.7485 3.12551 33.6297 0.321034 27.1389 0Z"
                    fill="white" />
                <path d="M14.1433 22.5955H0.0742188V36.916H14.1433V22.5955Z"
                    fill="white" />
            </svg>
