<svg width="28" height="27" viewBox="0 0 28 27" fill="none" xmlns="http://www.w3.org/2000/svg">
<path d="M11.2266 17.0438H11.5074H26.8442H27.125V15.7646H11.2266V17.0438Z" fill="white"/>
<path d="M11.2266 19.5341H11.7871H25.8918H26.4529V18.2549H11.2266V19.5341Z" fill="white"/>
<path d="M11.2266 22.0253H12.1487H24.2806H25.2033V20.7461H11.2266V22.0253Z" fill="white"/>
<path d="M0 24.5159H1.54723H21.6106H23.1584V23.2373H0V24.5159Z" fill="white"/>
<path d="M0 27.0001H5.72259H13.8099H19.5325V25.7285H0V27.0001Z" fill="white"/>
<path d="M14.478 0H0V8.08209H11.226V14.5524H27.2739C27.3012 14.2035 27.3192 13.8489 27.3192 13.4913C27.3186 6.25461 21.6286 0.347704 14.478 0Z" fill="white"/>
<path d="M7.54436 12.0537H0.0390625V19.6933H7.54436V12.0537Z" fill="white"/>
</svg>
